<?xml version="1.0" encoding="UTF-8"?>
<svg version="1.1" xmlns="http://www.w3.org/2000/svg" width="1024" height="1024">
<path d="M0 0 C337.92 0 675.84 0 1024 0 C1024 337.92 1024 675.84 1024 1024 C686.08 1024 348.16 1024 0 1024 C0 686.08 0 348.16 0 0 Z " fill="#FDFDFD" transform="translate(0,0)"/>
<path d="M0 0 C276.21 0 552.42 0 837 0 C837 142.56 837 285.12 837 432 C560.79 432 284.58 432 0 432 C0 289.44 0 146.88 0 0 Z " fill="#DC4647" transform="translate(93,296)"/>
<path d="M0 0 C8.25 1.65 16.5 3.3 25 5 C30.43017446 6.0115061 35.85822163 7.01087675 41.296875 7.97265625 C42.71626128 8.22489331 44.1356334 8.47721005 45.55499268 8.729599 C48.48488642 9.24983372 51.41515846 9.76786918 54.34570312 10.28442383 C57.27543085 10.80112421 60.2044284 11.32168601 63.1328125 11.84594727 C79.56848674 14.78781907 95.99182595 17.55882019 112.55291748 19.70436096 C117.39227219 20.33500763 122.1839155 20.9926503 126.96118164 21.99682617 C133.12912956 23.28565285 139.35560024 24.0289761 145.60546875 24.8046875 C146.90677231 24.96876099 148.20807587 25.13283447 149.54881287 25.30187988 C153.04040235 25.74132996 156.53264095 26.17537189 160.02515411 26.60741425 C162.19799527 26.87629877 164.37070521 27.14622417 166.543396 27.4163208 C196.29311213 31.11027258 226.03366628 34.67959807 255.97314453 36.40576172 C257.67833252 36.5046167 257.67833252 36.5046167 259.41796875 36.60546875 C260.40563232 36.65856201 261.3932959 36.71165527 262.41088867 36.76635742 C264.71714105 36.97447468 266.77982225 37.36083305 269 38 C269.10489746 39.01030273 269.10489746 39.01030273 269.21191406 40.04101562 C271.29037862 59.77058541 271.29037862 59.77058541 276 79 C276.2263916 79.7228418 276.4527832 80.44568359 276.68603516 81.19042969 C282.57439901 99.51237503 291.52424594 116.32264228 304 131 C304.72703125 131.86625 305.4540625 132.7325 306.203125 133.625 C316.16724229 145.09448753 327.13044515 154.03875506 340 162 C340.57476074 162.36222656 341.14952148 162.72445312 341.74169922 163.09765625 C351.34136584 169.10402775 361.34001442 173.28530623 372 177 C373.14984375 177.4021875 374.2996875 177.804375 375.484375 178.21875 C412.49478291 189.90624724 453.37368168 184.54592068 487.67919922 167.23364258 C500.02201361 160.78702614 510.95913957 152.63598702 521 143 C521.88171875 142.18144531 522.7634375 141.36289062 523.671875 140.51953125 C552.27215881 113.17151975 563.69244334 76.39015407 568 38 C568.86125488 37.93006836 569.72250977 37.86013672 570.60986328 37.78808594 C612.51844195 34.45922188 612.51844195 34.45922188 654.20295715 29.11460876 C659.76709145 28.27051474 665.32912487 27.64066461 670.92973328 27.09371948 C688.95584564 25.31427747 706.80763054 22.59597486 724.69402313 19.76859665 C727.22103206 19.36970695 729.74843058 18.97337277 732.27593994 18.57766724 C765.31461754 13.40031636 798.21938842 7.62709878 831 1 C832.65 0.67 834.3 0.34 836 0 C836 82.5 836 165 836 250 C560.12 250 284.24 250 0 250 C0 167.5 0 85 0 0 Z " fill="#8E181F" transform="translate(94,478)"/>
<path d="M0 0 C0.77257141 0.00087616 1.54514282 0.00175232 2.34112549 0.00265503 C14.29817233 0.04732971 25.39157397 0.81934625 36.875 4.375 C38.13691162 4.7450415 38.13691162 4.7450415 39.42431641 5.12255859 C68.31833845 13.66956457 95.71499231 29.72117388 114.875 53.375 C115.63425781 54.29667969 116.39351562 55.21835937 117.17578125 56.16796875 C132.6776643 75.37270601 142.65131053 97.31250746 147.875 121.375 C148.12121094 122.48230469 148.36742187 123.58960938 148.62109375 124.73046875 C151.88846277 142.87000019 150.92406728 162.45708021 146.875 180.375 C146.70871094 181.16390625 146.54242187 181.9528125 146.37109375 182.765625 C140.42606503 210.77331587 127.57759696 234.55836283 107.875 255.375 C107.00488281 256.32117188 106.13476562 257.26734375 105.23828125 258.2421875 C83.98721711 280.84639873 55.72449349 293.00595826 25.875 299.375 C24.74320313 299.62507813 23.61140625 299.87515625 22.4453125 300.1328125 C-14.68633129 307.12577459 -53.99430242 295.81741528 -84.85302734 275.22167969 C-116.97845657 252.9923371 -139.77902245 218.52284388 -147.02294922 180.12158203 C-147.41890289 177.87627519 -147.77944757 175.62855803 -148.125 173.375 C-148.31707031 172.18261719 -148.50914062 170.99023438 -148.70703125 169.76171875 C-150.7665706 152.3020982 -150.54649359 132.39875979 -146.125 115.375 C-145.93695801 114.63636719 -145.74891602 113.89773438 -145.55517578 113.13671875 C-135.32983831 74.41547265 -110.09172588 40.52479812 -75.45361328 20.33740234 C-63.63331273 13.687369 -51.34885142 8.49696307 -38.375 4.5625 C-37.42065063 4.2699231 -37.42065063 4.2699231 -36.44702148 3.97143555 C-24.45489561 0.53493582 -12.38218198 -0.03442359 0 0 Z " fill="#F3F1F1" transform="translate(512.125,361.625)"/>
<path d="M0 0 C29.12285789 23.03786145 50.05802508 54.37010199 56.51416016 91.37182617 C56.89643267 94.85608085 56.98778086 98.22358628 56.95166016 101.72729492 C56.94263672 102.87069336 56.93361328 104.0140918 56.92431641 105.19213867 C56.90691406 106.47797852 56.90691406 106.47797852 56.88916016 107.78979492 C53.25916016 107.78979492 49.62916016 107.78979492 45.88916016 107.78979492 C45.55916016 105.47979492 45.22916016 103.16979492 44.88916016 100.78979492 C43.23916016 100.78979492 41.58916016 100.78979492 39.88916016 100.78979492 C39.55916016 102.76979492 39.22916016 104.74979492 38.88916016 106.78979492 C37.89916016 106.78979492 36.90916016 106.78979492 35.88916016 106.78979492 C35.55916016 102.16979492 35.22916016 97.54979492 34.88916016 92.78979492 C33.56916016 92.45979492 32.24916016 92.12979492 30.88916016 91.78979492 C28.89299462 93.78596046 29.47932588 97.60681456 29.32666016 100.35229492 C29.28347656 101.06321289 29.24029297 101.77413086 29.19580078 102.5065918 C29.08944239 104.26741404 28.9887717 106.02857812 28.88916016 107.78979492 C27.89916016 107.78979492 26.90916016 107.78979492 25.88916016 107.78979492 C25.55916016 98.21979492 25.22916016 88.64979492 24.88916016 78.78979492 C23.56916016 78.45979492 22.24916016 78.12979492 20.88916016 77.78979492 C19.05696369 79.62199139 19.65014687 82.54693233 19.57275391 85.01245117 C19.53085937 86.27250977 19.48896484 87.53256836 19.44580078 88.83081055 C19.4059842 90.17130228 19.36627202 91.51179712 19.32666016 92.85229492 C19.28347973 94.19671015 19.2398656 95.54111152 19.19580078 96.88549805 C19.08930658 100.18681833 18.98729555 103.48821728 18.88916016 106.78979492 C17.89916016 106.78979492 16.90916016 106.78979492 15.88916016 106.78979492 C15.55916016 99.19979492 15.22916016 91.60979492 14.88916016 83.78979492 C13.23916016 83.78979492 11.58916016 83.78979492 9.88916016 83.78979492 C9.55916016 91.70979492 9.22916016 99.62979492 8.88916016 107.78979492 C7.89916016 107.78979492 6.90916016 107.78979492 5.88916016 107.78979492 C5.55916016 91.61979492 5.22916016 75.44979492 4.88916016 58.78979492 C3.23916016 58.78979492 1.58916016 58.78979492 -0.11083984 58.78979492 C-0.44083984 74.95979492 -0.77083984 91.12979492 -1.11083984 107.78979492 C-2.10083984 107.78979492 -3.09083984 107.78979492 -4.11083984 107.78979492 C-4.44083984 101.51979492 -4.77083984 95.24979492 -5.11083984 88.78979492 C-6.76083984 88.78979492 -8.41083984 88.78979492 -10.11083984 88.78979492 C-10.44083984 94.72979492 -10.77083984 100.66979492 -11.11083984 106.78979492 C-12.10083984 106.78979492 -13.09083984 106.78979492 -14.11083984 106.78979492 C-14.44083984 102.49979492 -14.77083984 98.20979492 -15.11083984 93.78979492 C-16.76083984 93.78979492 -18.41083984 93.78979492 -20.11083984 93.78979492 C-20.44083984 98.40979492 -20.77083984 103.02979492 -21.11083984 107.78979492 C-63.35083984 107.78979492 -105.59083984 107.78979492 -149.11083984 107.78979492 C-149.44083984 103.16979492 -149.77083984 98.54979492 -150.11083984 93.78979492 C-151.76083984 93.78979492 -153.41083984 93.78979492 -155.11083984 93.78979492 C-155.44083984 98.40979492 -155.77083984 103.02979492 -156.11083984 107.78979492 C-157.43083984 107.78979492 -158.75083984 107.78979492 -160.11083984 107.78979492 C-160.44083984 101.51979492 -160.77083984 95.24979492 -161.11083984 88.78979492 C-162.43083984 88.78979492 -163.75083984 88.78979492 -165.11083984 88.78979492 C-165.44083984 95.05979492 -165.77083984 101.32979492 -166.11083984 107.78979492 C-167.43083984 107.78979492 -168.75083984 107.78979492 -170.11083984 107.78979492 C-170.44083984 91.61979492 -170.77083984 75.44979492 -171.11083984 58.78979492 C-172.43083984 58.78979492 -173.75083984 58.78979492 -175.11083984 58.78979492 C-175.44083984 74.95979492 -175.77083984 91.12979492 -176.11083984 107.78979492 C-177.43083984 107.78979492 -178.75083984 107.78979492 -180.11083984 107.78979492 C-180.44083984 99.86979492 -180.77083984 91.94979492 -181.11083984 83.78979492 C-182.76083984 83.45979492 -184.41083984 83.12979492 -186.11083984 82.78979492 C-186.11083984 91.03979492 -186.11083984 99.28979492 -186.11083984 107.78979492 C-187.43083984 107.78979492 -188.75083984 107.78979492 -190.11083984 107.78979492 C-190.44083984 97.88979492 -190.77083984 87.98979492 -191.11083984 77.78979492 C-193.58583984 78.28479492 -193.58583984 78.28479492 -196.11083984 78.78979492 C-196.44083984 88.02979492 -196.77083984 97.26979492 -197.11083984 106.78979492 C-198.10083984 106.78979492 -199.09083984 106.78979492 -200.11083984 106.78979492 C-200.60583984 99.36479492 -200.60583984 99.36479492 -201.11083984 91.78979492 C-203.58583984 92.28479492 -203.58583984 92.28479492 -206.11083984 92.78979492 C-206.44083984 97.40979492 -206.77083984 102.02979492 -207.11083984 106.78979492 C-208.10083984 106.78979492 -209.09083984 106.78979492 -210.11083984 106.78979492 C-210.44083984 104.80979492 -210.77083984 102.82979492 -211.11083984 100.78979492 C-213.09083984 100.78979492 -215.07083984 100.78979492 -217.11083984 100.78979492 C-217.11083984 103.09979492 -217.11083984 105.40979492 -217.11083984 107.78979492 C-221.07083984 107.78979492 -225.03083984 107.78979492 -229.11083984 107.78979492 C-227.66472309 75.87549422 -216.0385709 46.10912881 -195.11083984 21.78979492 C-193.95261719 20.43047852 -193.95261719 20.43047852 -192.77099609 19.04370117 C-187.06528034 12.54477375 -180.97603081 7.03565412 -174.11083984 1.78979492 C-173.26005859 1.12334961 -172.40927734 0.4569043 -171.53271484 -0.22973633 C-121.57097268 -38.14980111 -49.86004179 -38.23175321 0 0 Z " fill="#DA3D3F" transform="translate(598.11083984375,396.210205078125)"/>
<path d="M0 0 C5.94 0 11.88 0 18 0 C18 28.71 18 57.42 18 87 C12.06 87 6.12 87 0 87 C0 58.29 0 29.58 0 0 Z " fill="#FDFDFC" transform="translate(536,399)"/>
<path d="M0 0 C7.90817104 3.95408552 15.22647454 8.69641153 19 17 C21.37706749 28.25440251 19.8396264 40.6494949 19 52 C12.73 52 6.46 52 0 52 C0 34.84 0 17.68 0 0 Z " fill="#FCFAF9" transform="translate(473,434)"/>
<path d="M0 0 C2.875 1.125 2.875 1.125 5 3 C5.928125 3.78375 6.85625 4.5675 7.8125 5.375 C10.9935097 9.39152808 10.62368283 13.94701836 10.421875 18.86328125 C9.82491484 23.30179057 8.80907888 25.50763167 6 29 C1.32679743 32.37464542 -2.40770286 32.62023232 -8.046875 32.48828125 C-12.58143281 31.73851971 -15.24344902 29.59837193 -18 26 C-21.2312299 20.88296698 -20.93235887 14.80134408 -20 9 C-15.0151325 0.35782762 -9.4490036 -0.74056051 0 0 Z " fill="#9E2428" transform="translate(551,528)"/>
<path d="M0 0 C18.35412958 -0.71695819 18.35412958 -0.71695819 23.6171875 3.53125 C28.11723119 8.31095742 28.53616865 13.04189885 28.35546875 19.375 C27.71734864 24.08727161 25.40836047 26.76234989 21.9375 29.8125 C18.92420017 31.65936119 16.44477382 32.12364492 12.98828125 32.09765625 C11.96408081 32.09390991 11.96408081 32.09390991 10.91918945 32.09008789 C9.62887817 32.07643188 9.62887817 32.07643188 8.3125 32.0625 C4.1978125 32.0315625 4.1978125 32.0315625 0 32 C0 21.44 0 10.88 0 0 Z " fill="#972124" transform="translate(498,528)"/>
<path d="M0 0 C6 0 6 0 8.05810547 1.8359375 C8.65510254 2.67382812 9.25209961 3.51171875 9.8671875 4.375 C10.52460938 5.27734375 11.18203125 6.1796875 11.859375 7.109375 C12.52453125 8.06328125 13.1896875 9.0171875 13.875 10 C14.90753906 11.43085937 14.90753906 11.43085937 15.9609375 12.890625 C17.65816548 15.24788608 19.33141754 17.62237614 21 20 C21.33 13.4 21.66 6.8 22 0 C23.98 0 25.96 0 28 0 C28 10.56 28 21.12 28 32 C22 32 22 32 20.26489258 30.59472656 C19.81267334 29.94987305 19.3604541 29.30501953 18.89453125 28.640625 C18.38599609 27.93679688 17.87746094 27.23296875 17.35351562 26.5078125 C16.84498047 25.76273438 16.33644531 25.01765625 15.8125 24.25 C15.29236328 23.52039063 14.77222656 22.79078125 14.23632812 22.0390625 C13.26419248 20.6733547 12.30008731 19.30186748 11.34692383 17.92285156 C9.94189753 15.91705365 8.46936609 13.95915478 7 12 C6.67 18.6 6.34 25.2 6 32 C4.02 32 2.04 32 0 32 C0 21.44 0 10.88 0 0 Z " fill="#A1292D" transform="translate(463,528)"/>
<path d="M0 0 C5 0 5 0 7.24609375 2.08984375 C7.96925781 3.02957031 8.69242188 3.96929688 9.4375 4.9375 C10.20835937 5.93265625 10.97921875 6.9278125 11.7734375 7.953125 C14.65260034 11.89303204 17.37138483 15.88857627 20 20 C20.33 13.4 20.66 6.8 21 0 C22.98 0 24.96 0 27 0 C27 10.56 27 21.12 27 32 C21 32 21 32 19.14135742 30.37939453 C18.38109253 29.26733643 18.38109253 29.26733643 17.60546875 28.1328125 C17.04279297 27.32972656 16.48011719 26.52664063 15.90039062 25.69921875 C15.33513672 24.84972656 14.76988281 24.00023437 14.1875 23.125 C13.60291016 22.28324219 13.01832031 21.44148437 12.41601562 20.57421875 C8.32254464 14.64508929 8.32254464 14.64508929 7 12 C6.67 18.6 6.34 25.2 6 32 C4.02 32 2.04 32 0 32 C0 21.44 0 10.88 0 0 Z " fill="#9F2326" transform="translate(568,528)"/>
<path d="M0 0 C25.11975337 -1.89877 25.11975337 -1.89877 31.17626953 1.06494141 C34.62423637 4.03909293 36.22229043 7.90836956 38 12 C39.58055947 14.4085571 41.27526684 16.68967332 43 19 C19.30418491 21.43212178 19.30418491 21.43212178 12.26171875 15.98828125 C9.2468143 13.13034804 6.61746852 10.01168047 4.21313477 6.62573242 C3.01579668 4.92815563 3.01579668 4.92815563 1.34741211 3.4152832 C0 2 0 2 0 0 Z " fill="#FBF6F5" transform="translate(492,432)"/>
<path d="M0 0 C2.31 0 4.62 0 7 0 C8.71111852 4.39573909 10.42005899 8.79231609 12.12695312 13.18969727 C12.7083802 14.68667686 13.29041028 16.18342239 13.87304688 17.67993164 C14.70860498 19.82637811 15.54201727 21.97364676 16.375 24.12109375 C16.63748535 24.79401962 16.8999707 25.4669455 17.17041016 26.16026306 C19 30.88612829 19 30.88612829 19 32 C16.69 32 14.38 32 12 32 C11.34 30.02 10.68 28.04 10 26 C3.07 25.505 3.07 25.505 -4 25 C-4.33 26.98 -4.66 28.96 -5 31 C-6 32 -6 32 -9.0625 32.0625 C-10.031875 32.041875 -11.00125 32.02125 -12 32 C-9.70145079 24.86631492 -7.06902585 17.90575116 -4.3125 10.9375 C-3.89677734 9.88111328 -3.48105469 8.82472656 -3.05273438 7.73632812 C-2.03723432 5.15672453 -1.01961715 2.57797839 0 0 Z " fill="#A42B2C" transform="translate(440,528)"/>
<path d="M0 0 C3.29905386 1.34655259 4.49878704 2.16464507 6.3125 5.1875 C6.539375 5.785625 6.76625 6.38375 7 7 C6.34 7.66 5.68 8.32 5 9 C2.06546739 8.63318342 1.13562754 8.13562754 -1 6 C-6.65858006 5.32931472 -6.65858006 5.32931472 -11.4375 7.875 C-14.26058823 11.7144 -14.3182553 14.22617054 -14 19 C-12.41772398 23.30843924 -12.41772398 23.30843924 -9 26 C-3.72922847 26.54764867 -3.72922847 26.54764867 0.9375 24.6875 C2.17571726 22.86929609 2.17571726 22.86929609 3 20 C0.36 20 -2.28 20 -5 20 C-5 18.35 -5 16.7 -5 15 C-0.71 15 3.58 15 8 15 C8 20.61 8 26.22 8 32 C6.35 32 4.7 32 3 32 C2.67 31.34 2.34 30.68 2 30 C1.01 30.66 0.02 31.32 -1 32 C-5.99658326 32.82985212 -10.61149437 32.74156335 -14.9375 29.9375 C-18.87372813 26.62327018 -20.58813057 22.90367949 -21.3125 17.796875 C-21.62639263 12.02909794 -20.44521399 8.62383983 -17 4 C-11.93761349 -0.81544083 -6.63765382 -0.8398251 0 0 Z " fill="#951D21" transform="translate(622,528)"/>
<path d="M0 0 C6.27 0 12.54 0 19 0 C19 10.89 19 21.78 19 33 C14.64846776 29.27011522 10.6500964 25.74869911 6.6875 21.6875 C3.6495471 18.42613581 3.6495471 18.42613581 0 16 C0 10.72 0 5.44 0 0 Z " fill="#FCF9F7" transform="translate(473,399)"/>
<path d="M0 0 C1.98 0 3.96 0 6 0 C6 4.29 6 8.58 6 13 C10.62 13 15.24 13 20 13 C20 8.71 20 4.42 20 0 C21.98 0 23.96 0 26 0 C26 10.56 26 21.12 26 32 C24.35 32 22.7 32 21 32 C21 27.38 21 22.76 21 18 C15.72 18 10.44 18 5 18 C5 22.62 5 27.24 5 32 C3.35 32 1.7 32 0 32 C0 21.44 0 10.88 0 0 Z " fill="#981D1F" transform="translate(397,528)"/>
<path d="M0 0 C3.26244817 0.9029402 4.89772796 2.94405434 6.93359375 5.53515625 C8.46956829 8.60710533 8.16009755 11.13759918 7.93359375 14.53515625 C6.35635073 18.5158172 5.52358464 20.14182899 1.93359375 22.53515625 C-1.16154144 22.93452853 -3.10499685 23.16892091 -6.06640625 22.53515625 C-9.45846421 19.84977704 -10.71254564 18.32766329 -11.54296875 14.12109375 C-11.78636061 9.88095141 -11.53689163 6.4562271 -9.06640625 2.91015625 C-5.72678112 0.26628635 -4.14847823 -0.30584244 0 0 Z " fill="#F7F4F4" transform="translate(548.06640625,532.46484375)"/>
<path d="M0 0 C10.46428571 0 10.46428571 0 14 3 C16.35890952 6.03288367 16.35622018 9.2605188 16.2578125 13.03515625 C15.87949755 15.91837475 14.79180855 17.74364849 13 20 C10 22 10 22 0 22 C0 14.74 0 7.48 0 0 Z " fill="#F6F3F3" transform="translate(504,533)"/>
<path d="M0 0 C18.35412958 -0.71695819 18.35412958 -0.71695819 23.6171875 3.53125 C28.16131839 8.35778451 28.46102911 13.05442426 28.3046875 19.4296875 C27.93533438 22.54551257 26.99939087 24.58406937 25 27 C23 24 23 24 23 21 C22.34 22.32 21.68 23.64 21 25 C20.34 24.67 19.68 24.34 19 24 C19.33 23.505 19.66 23.01 20 22.5 C21.68728416 18.28178961 21.61398283 13.94427897 20.25 9.625 C18.23154425 7.00100752 15.8584325 6.15065206 12.640625 5.5859375 C11.85171875 5.51632812 11.0628125 5.44671875 10.25 5.375 C9.05117188 5.26285156 9.05117188 5.26285156 7.828125 5.1484375 C7.22484375 5.09945312 6.6215625 5.05046875 6 5 C6.66 4.67 7.32 4.34 8 4 C8 3.34 8 2.68 8 2 C5.69 1.67 3.38 1.34 1 1 C1 11.23 1 21.46 1 32 C0.67 32 0.34 32 0 32 C0 21.44 0 10.88 0 0 Z " fill="#AC3234" transform="translate(498,528)"/>
<path d="M0 0 C1.32 0 2.64 0 4 0 C5.98 3.96 7.96 7.92 10 12 C11.97204625 9.370605 13.61539808 7.06894138 15.1875 4.25 C15.785625 3.1775 16.38375 2.105 17 1 C18.32 1 19.64 1 21 1 C21 7.93 21 14.86 21 22 C20.01 22 19.02 22 18 22 C17.505 15.565 17.505 15.565 17 9 C15.35 12.3 13.7 15.6 12 19 C6.73706082 16.36853041 6.36300227 14.23236217 4 9 C3.67 13.29 3.34 17.58 3 22 C2.01 22 1.02 22 0 22 C0 14.74 0 7.48 0 0 Z " fill="#882728" transform="translate(464,595)"/>
<path d="M0 0 C0.99 0.33 1.98 0.66 3 1 C2.125 5.75 2.125 5.75 1 8 C4.63 8 8.26 8 12 8 C12 7.34 12 6.68 12 6 C13.65 5.67 15.3 5.34 17 5 C18.65 9.62 20.3 14.24 22 19 C19.69 19 17.38 19 15 19 C14.34 17.02 13.68 15.04 13 13 C6.07 12.505 6.07 12.505 -1 12 C-1.33 13.98 -1.66 15.96 -2 18 C-3 19 -3 19 -6.0625 19.0625 C-7.031875 19.041875 -8.00125 19.02125 -9 19 C-7.36041242 13.76727367 -5.61047965 8.84803364 -3 4 C-2.34 4 -1.68 4 -1 4 C-0.67 2.68 -0.34 1.36 0 0 Z " fill="#972025" transform="translate(437,541)"/>
<path d="M0 0 C1.98 0 3.96 0 6 0 C6 4.29 6 8.58 6 13 C10.62 13 15.24 13 20 13 C20 8.71 20 4.42 20 0 C20.33 0 20.66 0 21 0 C21 4.62 21 9.24 21 14 C14.565 14.495 14.565 14.495 8 15 C8 15.66 8 16.32 8 17 C7.34 17.33 6.68 17.66 6 18 C5.52998967 21.27555608 5.52998967 21.27555608 5.375 25.0625 C5.30023438 26.35285156 5.22546875 27.64320313 5.1484375 28.97265625 C5.09945313 29.97167969 5.05046875 30.97070312 5 32 C3.35 32 1.7 32 0 32 C0 21.44 0 10.88 0 0 Z " fill="#A22F32" transform="translate(397,528)"/>
<path d="M0 0 C0.66 0.33 1.32 0.66 2 1 C1.67 1.99 1.34 2.98 1 4 C-2.3 4 -5.6 4 -9 4 C-9 4.99 -9 5.98 -9 7 C-8.38511719 7.18175781 -7.77023437 7.36351562 -7.13671875 7.55078125 C-6.32847656 7.80214844 -5.52023437 8.05351563 -4.6875 8.3125 C-3.48673828 8.67794922 -3.48673828 8.67794922 -2.26171875 9.05078125 C0.14918593 10.06261171 1.42698016 10.91971969 3 13 C2.875 16.0625 2.875 16.0625 2 19 C-1.23914229 21.15942819 -2.24859733 21.27232978 -6 21.25 C-6.86625 21.25515625 -7.7325 21.2603125 -8.625 21.265625 C-11 21 -11 21 -14 19 C-13.505 17.515 -13.505 17.515 -13 16 C-12.484375 16.165 -11.96875 16.33 -11.4375 16.5 C-8.26636124 17.15049 -5.22781666 17.0620734 -2 17 C-2 16.01 -2 15.02 -2 14 C-2.54269531 13.80664062 -3.08539062 13.61328125 -3.64453125 13.4140625 C-4.35996094 13.15367187 -5.07539062 12.89328125 -5.8125 12.625 C-6.52019531 12.36976563 -7.22789062 12.11453125 -7.95703125 11.8515625 C-10 11 -10 11 -13 9 C-13.53582022 5.47889567 -13.38027707 3.64481763 -11.5625 0.5625 C-7.70873908 -1.78735422 -4.28349956 -0.96750859 0 0 Z " fill="#8D2425" transform="translate(529,596)"/>
<path d="M0 0 C0.99 0 1.98 0 3 0 C3.04898437 0.96421875 3.09796875 1.9284375 3.1484375 2.921875 C3.22320312 4.18515625 3.29796875 5.4484375 3.375 6.75 C3.44460938 8.00296875 3.51421875 9.2559375 3.5859375 10.546875 C3.95323304 13.60998121 4.39711286 15.41974266 6 18 C8.91652174 18.16681109 8.91652174 18.16681109 12 18 C14.84614024 15.15385976 14.45579076 12.19630858 14.625 8.375 C14.68300781 7.31539062 14.68300781 7.31539062 14.7421875 6.234375 C14.83647724 4.49001476 14.91932891 2.74504309 15 1 C15.99 1 16.98 1 18 1 C18.08139142 3.39652528 18.14067009 5.79025436 18.1875 8.1875 C18.21263672 8.86103516 18.23777344 9.53457031 18.26367188 10.22851562 C18.32926499 14.71071161 17.72192986 17.42621923 15 21 C12.28562321 23.13272462 10.95173167 22.99745956 7.4375 22.8125 C2.89632107 21.73913043 2.89632107 21.73913043 1 19 C-0.25433458 15.23699626 -0.10695422 11.72789091 -0.0625 7.8125 C-0.05798828 7.06291016 -0.05347656 6.31332031 -0.04882812 5.54101562 C-0.03706354 3.69397617 -0.01912865 1.84697787 0 0 Z " fill="#8B201F" transform="translate(492,595)"/>
<path d="M0 0 C2.875 2 2.875 2 5 4 C4.67 4.99 4.34 5.98 4 7 C3.484375 6.67 2.96875 6.34 2.4375 6 C-0.86224134 4.64625996 -3.47013492 4.67316064 -7 5 C-9.32579101 8.48868651 -9.41865457 9.89718519 -9 14 C-8.02896212 16.46186579 -8.02896212 16.46186579 -6 18 C-2.16513771 18.41683286 1.26185284 17.87956404 5 17 C4.06788763 19.33028092 3.30996602 20.75891532 1.3125 22.3125 C-2.20243891 23.35748184 -4.47871085 22.98843204 -8 22 C-11.28773754 19.27187736 -12.66107252 17.72494797 -13.48046875 13.5546875 C-13.73790612 8.89298373 -13.54764508 6.70617392 -10.625 2.9375 C-6.80710216 0.11952779 -4.77026947 -0.46767348 0 0 Z " fill="#8D2527" transform="translate(559,595)"/>
<path d="M0 0 C11.95910904 -0.56549202 11.95910904 -0.56549202 16 3 C16.928125 3.78375 17.85625 4.5675 18.8125 5.375 C22.58302247 9.99389003 21.37361637 16.4040571 21 22 C20.67 22 20.34 22 20 22 C20 20.35 20 18.7 20 17 C19.34 17 18.68 17 18 17 C17.67 16.01 17.34 15.02 17 14 C17.33 13.34 17.66 12.68 18 12 C17.01 12 16.02 12 15 12 C13.95107762 10.36368108 12.95093297 8.69514137 12 7 C9.75487738 5.87743869 8.48543351 5.86586238 6 5.875 C5.29875 5.87242187 4.5975 5.86984375 3.875 5.8671875 C1.90846225 5.88622764 1.90846225 5.88622764 0 7 C0.185625 6.21625 0.37125 5.4325 0.5625 4.625 C1.25962266 2.02910225 1.25962266 2.02910225 0 0 Z " fill="#A82628" transform="translate(540,528)"/>
<path d="M0 0 C3.29905386 1.34655259 4.49878704 2.16464507 6.3125 5.1875 C6.539375 5.785625 6.76625 6.38375 7 7 C6.34 7.66 5.68 8.32 5 9 C2.06546739 8.63318342 1.13562754 8.13562754 -1 6 C-6.63959623 5.31742712 -6.63959623 5.31742712 -11.375 7.875 C-11.91125 8.57625 -12.4475 9.2775 -13 10 C-13.66 10.66 -14.32 11.32 -15 12 C-14.67 10.02 -14.34 8.04 -14 6 C-15.98 7.32 -17.96 8.64 -20 10 C-18.64717831 5.57258356 -16.76701112 3.63690779 -13 1 C-9.07713554 -0.96143223 -4.28670656 -0.34690111 0 0 Z " fill="#A7272A" transform="translate(622,528)"/>
<path d="M0 0 C1.32 0 2.64 0 4 0 C4 6.93 4 13.86 4 21 C3.01 21 2.02 21 1 21 C0.67 16.71 0.34 12.42 0 8 C-1.65 11.3 -3.3 14.6 -5 18 C-5.99 17.67 -6.98 17.34 -8 17 C-7.67 15.68 -7.34 14.36 -7 13 C-6.34 13 -5.68 13 -5 13 C-4.9175 12.154375 -4.835 11.30875 -4.75 10.4375 C-3.84266147 6.27886509 -2.23458727 3.60417301 0 0 Z " fill="#891D1E" transform="translate(481,596)"/>
<path d="M0 0 C1.85966547 5.5789964 2.01385245 11.84556355 -0.5 17.1875 C-1.2425 18.0846875 -1.2425 18.0846875 -2 19 C-4 16 -4 16 -4 13 C-4.66 14.32 -5.32 15.64 -6 17 C-6.66 16.67 -7.32 16.34 -8 16 C-7.67902344 15.43410156 -7.35804688 14.86820313 -7.02734375 14.28515625 C-5.65024431 11.22202631 -5.61490933 8.44003981 -5.44140625 5.12109375 C-4.78145756 1.94983591 -3.35694851 0 0 0 Z " fill="#A2292B" transform="translate(525,536)"/>
<path d="M0 0 C0.66 0 1.32 0 2 0 C2 1.65 2 3.3 2 5 C2.66 5 3.32 5 4 5 C4.61042815 12.20305214 4.61042815 12.20305214 1.75 15.9375 C-0.68045561 17.76034171 -2.03285617 18.67031735 -5 19 C-5.37643208 14.48281506 -5.37643208 14.48281506 -3.5625 12.15625 C-1.74836601 9.6527451 -1.33059394 7.77885687 -0.8125 4.75 C-0.65394531 3.85796875 -0.49539063 2.9659375 -0.33203125 2.046875 C-0.22246094 1.37140625 -0.11289062 0.6959375 0 0 Z " fill="#951D1F" transform="translate(556,540)"/>
<path d="M0 0 C0.66 1.32 1.32 2.64 2 4 C2.99 5.485 2.99 5.485 4 7 C4.13525391 9.54370117 4.13525391 9.54370117 3.9765625 12.54296875 C3.925 13.61611328 3.8734375 14.68925781 3.8203125 15.79492188 C3.72363281 17.47424805 3.72363281 17.47424805 3.625 19.1875 C3.56828125 20.31865234 3.5115625 21.44980469 3.453125 22.61523438 C3.31157786 25.41079047 3.16015835 28.20545841 3 31 C2.01 31 1.02 31 0 31 C0 20.77 0 10.54 0 0 Z " fill="#C52E2F" transform="translate(604,473)"/>
<path d="M0 0 C0.33 0 0.66 0 1 0 C1 6.6 1 13.2 1 20 C-0.65 20 -2.3 20 -4 20 C-4 15.38 -4 10.76 -4 6 C-3.01 6 -2.02 6 -1 6 C-0.67 4.02 -0.34 2.04 0 0 Z " fill="#8B181A" transform="translate(422,540)"/>
<path d="M0 0 C1.90389849 2.85584773 2.69462177 4.9311762 3.625 8.1875 C3.88539063 9.08855469 4.14578125 9.98960937 4.4140625 10.91796875 C4.60742188 11.60503906 4.80078125 12.29210937 5 13 C2.03 13 -0.94 13 -4 13 C-3.40895235 8.15340923 -2.02055843 4.39251833 0 0 Z " fill="#F2EDEC" transform="translate(443,535)"/>
<path d="M0 0 C0.99 0 1.98 0 3 0 C3 6.93 3 13.86 3 21 C2.01 21 1.02 21 0 21 C0 14.07 0 7.14 0 0 Z " fill="#841013" transform="translate(537,596)"/>
<path d="M0 0 C3.3 0 6.6 0 10 0 C10 5.61 10 11.22 10 17 C9.01 17 8.02 17 7 17 C6.67 12.05 6.34 7.1 6 2 C4.02 2.33 2.04 2.66 0 3 C0 2.01 0 1.02 0 0 Z " fill="#C54343" transform="translate(391,486)"/>
<path d="M0 0 C0.33 0 0.66 0 1 0 C1 2.31 1 4.62 1 7 C2.98 7 4.96 7 7 7 C6.35546875 7.47953125 5.7109375 7.9590625 5.046875 8.453125 C2.12888423 12.08390741 2.33272759 15.2150239 2.25 19.75 C2.22035156 20.54277344 2.19070313 21.33554687 2.16015625 22.15234375 C2.08972213 24.10102094 2.04256518 26.05051495 2 28 C1.34 28 0.68 28 0 28 C0 18.76 0 9.52 0 0 Z " fill="#BF3435" transform="translate(429,475)"/>
<path d="M0 0 C0.33 0 0.66 0 1 0 C1 6.27 1 12.54 1 19 C0.01 19 -0.98 19 -2 19 C-2.05394705 16.39555652 -2.09364469 13.79223002 -2.125 11.1875 C-2.14175781 10.44951172 -2.15851562 9.71152344 -2.17578125 8.95117188 C-2.21074628 5.08753574 -2.19397555 3.29096332 0 0 Z " fill="#C63D3D" transform="translate(616,484)"/>
<path d="M0 0 C1.32 0 2.64 0 4 0 C4.99 2.97 5.98 5.94 7 9 C4.69 9 2.38 9 0 9 C-0.84454356 5.62182575 -1.10844919 3.32534757 0 0 Z " fill="#8E2425" transform="translate(452,551)"/>
<path d="M0 0 C0.99 0.33 1.98 0.66 3 1 C3 6.28 3 11.56 3 17 C2.01 17 1.02 17 0 17 C0 11.39 0 5.78 0 0 Z " fill="#C5383A" transform="translate(624,487)"/>
<path d="M0 0 C0.33 0.99 0.66 1.98 1 3 C0.38125 3.0825 -0.2375 3.165 -0.875 3.25 C-1.57625 3.4975 -2.2775 3.745 -3 4 C-3.40798828 4.86818359 -3.40798828 4.86818359 -3.82421875 5.75390625 C-5.37652257 8.71927069 -7.44138 10.46994846 -9.9375 12.6875 C-10.81277344 13.47511719 -11.68804687 14.26273437 -12.58984375 15.07421875 C-15 17 -15 17 -18 18 C-16.41092475 13.85074796 -13.36467701 11.31591806 -10.125 8.4375 C-9.59519531 7.95603516 -9.06539063 7.47457031 -8.51953125 6.97851562 C-5.77768026 4.50540685 -3.00076351 2.15272165 0 0 Z " fill="#ED4949" transform="translate(425,397)"/>
<path d="M0 0 C0.99 0 1.98 0 3 0 C3 4.95 3 9.9 3 15 C2.01 15 1.02 15 0 15 C0 10.05 0 5.1 0 0 Z " fill="#8A1418" transform="translate(507,596)"/>
<path d="M0 0 C3.32153186 4.42870914 3.3460174 5.46608682 3.1875 10.75 C3.16042969 11.92046875 3.13335937 13.0909375 3.10546875 14.296875 C3.07066406 15.18890625 3.03585937 16.0809375 3 17 C2.01 17 1.02 17 0 17 C0 11.39 0 5.78 0 0 Z " fill="#C4373B" transform="translate(439,486)"/>
<path d="M0 0 C1.17369141 0.17789063 1.17369141 0.17789063 2.37109375 0.359375 C3.54865234 0.52179687 3.54865234 0.52179687 4.75 0.6875 C6.80859375 1.109375 6.80859375 1.109375 8.80859375 2.109375 C8.47859375 3.099375 8.14859375 4.089375 7.80859375 5.109375 C3.51859375 4.449375 -0.77140625 3.789375 -5.19140625 3.109375 C-2.19140625 0.109375 -2.19140625 0.109375 0 0 Z " fill="#952C30" transform="translate(522.19140625,594.890625)"/>
<path d="M0 0 C2.62187494 1.04874998 3.79371361 1.64931313 5.25 4.125 C5.4975 4.74375 5.745 5.3625 6 6 C5.34 6.66 4.68 7.32 4 8 C2 7.875 2 7.875 0 7 C-1.25 4.9375 -1.25 4.9375 -2 3 C-1.34 3 -0.68 3 0 3 C0 2.01 0 1.02 0 0 Z " fill="#AB312F" transform="translate(623,529)"/>
<path d="M0 0 C0.99 0.33 1.98 0.66 3 1 C3 5.29 3 9.58 3 14 C2.01 14 1.02 14 0 14 C0 9.38 0 4.76 0 0 Z " fill="#C3363A" transform="translate(594,490)"/>
<path d="M0 0 C4.29 0 8.58 0 13 0 C13 0.33 13 0.66 13 1 C11.35 1.33 9.7 1.66 8 2 C8 2.99 8 3.98 8 5 C5.36 5 2.72 5 0 5 C0 3.35 0 1.7 0 0 Z " fill="#A93A3D" transform="translate(617,543)"/>
<path d="M0 0 C3.93774177 -0.36630156 5.56539771 -0.30233203 8.875 2 C9.926875 2.99 9.926875 2.99 11 4 C10.67 4.99 10.34 5.98 10 7 C7.03 6.01 4.06 5.02 1 4 C1.33 3.34 1.66 2.68 2 2 C1.34 1.34 0.68 0.68 0 0 Z " fill="#A04246" transform="translate(553,595)"/>
<path d="M0 0 C0.33 0 0.66 0 1 0 C1 3.96 1 7.92 1 12 C0.01 12 -0.98 12 -2 12 C-2.05395478 10.37536158 -2.09277195 8.75021459 -2.125 7.125 C-2.14820313 6.22007812 -2.17140625 5.31515625 -2.1953125 4.3828125 C-2 2 -2 2 0 0 Z " fill="#C23C3B" transform="translate(606,492)"/>
<path d="M0 0 C1.32 0.33 2.64 0.66 4 1 C3.34 1.66 2.68 2.32 2 3 C1.62864085 5.52037964 1.62864085 5.52037964 1.5859375 8.4453125 C1.54726562 9.52167969 1.50859375 10.59804688 1.46875 11.70703125 C1.4378125 12.83496094 1.406875 13.96289062 1.375 15.125 C1.33632812 16.26066406 1.29765625 17.39632813 1.2578125 18.56640625 C1.16332399 21.37743956 1.07776459 24.18846233 1 27 C0.67 27 0.34 27 0 27 C0 18.09 0 9.18 0 0 Z " fill="#E23B3A" transform="translate(94,297)"/>
<path d="M0 0 C0.99 0.33 1.98 0.66 3 1 C2.03628506 3.40928735 1.34789837 4.76007009 -0.8125 6.25 C-3.32321365 7.11081611 -5.36348649 7.14647297 -8 7 C-6.68 6.34 -5.36 5.68 -4 5 C-4.99 4.34 -5.98 3.68 -7 3 C-5.5459375 2.5359375 -5.5459375 2.5359375 -4.0625 2.0625 C-1.15934208 1.30476658 -1.15934208 1.30476658 0 0 Z " fill="#923939" transform="translate(506,611)"/>
<path d="M0 0 C1.32 0.99 2.64 1.98 4 3 C3.625 5.9375 3.625 5.9375 3 9 C2.01 9.495 2.01 9.495 1 10 C0.34 9.67 -0.32 9.34 -1 9 C-0.67 6.03 -0.34 3.06 0 0 Z " fill="#8D2C2D" transform="translate(528,606)"/>
<path d="M0 0 C-0.96371494 2.40928735 -1.65210163 3.76007009 -3.8125 5.25 C-6.32321365 6.11081611 -8.36348649 6.14647297 -11 6 C-10.01 5.34 -9.02 4.68 -8 4 C-8.66 3.34 -9.32 2.68 -10 2 C-3.375 0 -3.375 0 0 0 Z " fill="#983F3F" transform="translate(564,612)"/>
<path d="M0 0 C0.66 0 1.32 0 2 0 C0.8905928 3.48670834 -0.26337666 6.77484237 -2 10 C-2.99 9.67 -3.98 9.34 -5 9 C-4.67 7.68 -4.34 6.36 -4 5 C-3.34 5 -2.68 5 -2 5 C-2 4.01 -2 3.02 -2 2 C-1.34 2 -0.68 2 0 2 C0 1.34 0 0.68 0 0 Z " fill="#851919" transform="translate(478,604)"/>
<path d="M0 0 C0.33 0 0.66 0 1 0 C1 1.65 1 3.3 1 5 C-2.63 5 -6.26 5 -10 5 C-9.67 3.68 -9.34 2.36 -9 1 C-9 1.66 -9 2.32 -9 3 C-7.700625 2.87625 -6.40125 2.7525 -5.0625 2.625 C-4.33160156 2.55539062 -3.60070312 2.48578125 -2.84765625 2.4140625 C-2.23792969 2.27742188 -1.62820313 2.14078125 -1 2 C-0.67 1.34 -0.34 0.68 0 0 Z " fill="#C85155" transform="translate(654,499)"/>
<path d="M0 0 C2.64 0 5.28 0 8 0 C7.67 0.99 7.34 1.98 7 3 C7.66 3.33 8.32 3.66 9 4 C6.03 4 3.06 4 0 4 C0.66 3.67 1.32 3.34 2 3 C2 2.34 2 1.68 2 1 C1.34 0.67 0.68 0.34 0 0 Z " fill="#A91F22" transform="translate(504,529)"/>
<path d="M0 0 C0.33 0.66 0.66 1.32 1 2 C2.32 1.67 3.64 1.34 5 1 C4.34 3.64 3.68 6.28 3 9 C2.01 9 1.02 9 0 9 C0 6.03 0 3.06 0 0 Z " fill="#C42C2B" transform="translate(634,494)"/>
<path d="M0 0 C2 3 2 3 2 5 C1.68521554 6.33783393 1.35412344 7.67203709 1 9 C0.67 8.34 0.34 7.68 0 7 C-0.99 7 -1.98 7 -3 7 C-3.33 6.34 -3.66 5.68 -4 5 C-2.68 3.35 -1.36 1.7 0 0 Z " fill="#9B2B2E" transform="translate(624,551)"/>
<path d="M0 0 C0.66 0.99 1.32 1.98 2 3 C-0.31 5.97 -2.62 8.94 -5 12 C-5.66 11.67 -6.32 11.34 -7 11 C-4.69 7.37 -2.38 3.74 0 0 Z " fill="#972429" transform="translate(641,588)"/>
<path d="M0 0 C0.99 0 1.98 0 3 0 C3.625 1.875 3.625 1.875 4 4 C3.34 4.66 2.68 5.32 2 6 C1.01 6 0.02 6 -1 6 C-1.042721 4.33388095 -1.04063832 2.66617115 -1 1 C-0.67 0.67 -0.34 0.34 0 0 Z " fill="#901A1D" transform="translate(552,553)"/>
<path d="M0 0 C0.66 1.32 1.32 2.64 2 4 C1.34 4 0.68 4 0 4 C0.33 5.65 0.66 7.3 1 9 C0.01 9 -0.98 9 -2 9 C-2.66 7.68 -3.32 6.36 -4 5 C-3.01 4.34 -2.02 3.68 -1 3 C-0.67 2.01 -0.34 1.02 0 0 Z " fill="#9C2F32" transform="translate(607,547)"/>
<path d="M0 0 C0.99 0 1.98 0 3 0 C3 2.31 3 4.62 3 7 C2.01 7 1.02 7 0 7 C0 4.69 0 2.38 0 0 Z " fill="#952528" transform="translate(492,595)"/>
<path d="M0 0 C0.12375 0.61875 0.2475 1.2375 0.375 1.875 C0.87197356 4.19120832 0.87197356 4.19120832 3 6 C2.625 8.125 2.625 8.125 2 10 C1.34 9.01 0.68 8.02 0 7 C-0.99 7.495 -0.99 7.495 -2 8 C-1.47731534 5.23723823 -0.89130413 2.6739124 0 0 Z " fill="#98292A" transform="translate(555,547)"/>
<path d="M0 0 C2.31 0.66 4.62 1.32 7 2 C6.67 2.66 6.34 3.32 6 4 C4.02 4 2.04 4 0 4 C0 2.68 0 1.36 0 0 Z " fill="#85191B" transform="translate(496,613)"/>
<path d="M0 0 C2.97 0.33 5.94 0.66 9 1 C7 3 7 3 4.5 3.3125 C3.2625 3.1578125 3.2625 3.1578125 2 3 C1.34 2.01 0.68 1.02 0 0 Z " fill="#841618" transform="translate(549,614)"/>
<path d="M0 0 C0.66 0 1.32 0 2 0 C2 2.31 2 4.62 2 7 C1.01 6.67 0.02 6.34 -1 6 C-1.042721 4.33388095 -1.04063832 2.66617115 -1 1 C-0.67 0.67 -0.34 0.34 0 0 Z " fill="#801012" transform="translate(547,603)"/>
<path d="M0 0 C1.32 0.33 2.64 0.66 4 1 C3.67 1.99 3.34 2.98 3 4 C0.03 3.67 -2.94 3.34 -6 3 C-6 2.67 -6 2.34 -6 2 C-4.02 2 -2.04 2 0 2 C0 1.34 0 0.68 0 0 Z " fill="#A74C4C" transform="translate(527,596)"/>
</svg>
